<svg t="1711694257868" class="icon" viewBox="0 0 1024 1024" version="1.1" xmlns="http://www.w3.org/2000/svg" p-id="11183" width="48" height="48"><path d="M158.72 449.024c17.92 0 32.256-14.336 32.256-32.256V253.44h614.912l-35.328 35.328c-12.288 12.288-12.288 32.768 0 45.056 6.144 6.144 14.336 9.216 22.528 9.216s16.384-3.072 22.528-9.216l112.64-112.64-112.64-112.64c-12.288-12.288-32.768-12.288-45.056 0-12.288 12.288-12.288 32.768 0 45.056l35.328 35.328H158.72c-17.92 0-32.256 14.336-32.256 32.256v195.072c0 18.432 14.336 32.768 32.256 32.768zM863.744 572.928c-17.92 0-31.744 14.336-31.744 31.744V768H216.576l35.328-35.328c12.288-12.288 12.288-32.768 0-45.056-12.288-12.288-32.768-12.288-45.056 0l-112.64 112.64 112.64 112.64c6.144 6.144 14.336 9.216 22.528 9.216s16.384-3.072 22.528-9.216c12.288-12.288 12.288-32.768 0-45.056l-35.328-35.328h647.168c17.92 0 31.744-14.336 31.744-31.744v-195.072c0.512-18.432-13.824-32.768-31.744-32.768z" fill="#2c2c2c" p-id="11184"></path></svg>
