<svg t="1711694128716" class="icon" viewBox="0 0 1024 1024" version="1.1" xmlns="http://www.w3.org/2000/svg" p-id="8812" width="48" height="48"><path d="M907.1 432.1l-89-90.2-84.5 85.7h-28.1l-85.8-85.2-84.5 83.9c-30.9-99.2-121.4-171-228.2-171-132.3 0-239.6 110.3-239.6 246.3S174.7 747.9 307 747.9c107.3 0 198.1-72.5 228.6-172.4h346.8c39.5 0 71.5-32.4 71.5-72.4V500c0-31.2-19.5-57.7-46.8-67.9zM307 599.9c-52.9 0-95.8-44.1-95.8-98.5s42.9-98.5 95.8-98.5 95.8 44.1 95.8 98.5-42.9 98.5-95.8 98.5z" p-id="8813"></path></svg>
